<?xml version="1.0" encoding="UTF-8" standalone="no"?>
<svg
   xmlns:osb="http://www.openswatchbook.org/uri/2009/osb"
   xmlns:dc="http://purl.org/dc/elements/1.1/"
   xmlns:cc="http://creativecommons.org/ns#"
   xmlns:rdf="http://www.w3.org/1999/02/22-rdf-syntax-ns#"
   xmlns:svg="http://www.w3.org/2000/svg"
   xmlns="http://www.w3.org/2000/svg"
   xmlns:xlink="http://www.w3.org/1999/xlink"
   xmlns:sodipodi="http://sodipodi.sourceforge.net/DTD/sodipodi-0.dtd"
   xmlns:inkscape="http://www.inkscape.org/namespaces/inkscape"
   viewBox="0 0 700 700"
   stroke="black"
   stroke-width="5"
   fill="none"
   version="1.1"
   id="svg10"
   sodipodi:docname="icon.svg"
   inkscape:version="1.0 (4035a4fb49, 2020-05-01)">
  <metadata
     id="metadata16">
    <rdf:RDF>
      <cc:Work
         rdf:about="">
        <dc:format>image/svg+xml</dc:format>
        <dc:type
           rdf:resource="http://purl.org/dc/dcmitype/StillImage" />
      </cc:Work>
    </rdf:RDF>
  </metadata>
  <defs
     id="defs14">
    <linearGradient
       id="linearGradient2813"
       inkscape:collect="always">
      <stop
         id="stop2809"
         offset="0"
         style="stop-color:#762f87;stop-opacity:1;" />
      <stop
         id="stop2811"
         offset="1"
         style="stop-color:#161616;stop-opacity:1" />
    </linearGradient>
    <linearGradient
       osb:paint="solid"
       id="linearGradient2795">
      <stop
         id="stop2793"
         offset="0"
         style="stop-color:#762f87;stop-opacity:1;" />
    </linearGradient>
    <linearGradient
       gradientUnits="userSpaceOnUse"
       y2="75"
       x2="700"
       y1="75"
       x1="0"
       id="linearGradient2815"
       xlink:href="#linearGradient2813"
       inkscape:collect="always" />
  </defs>
  <sodipodi:namedview
     inkscape:document-rotation="0"
     pagecolor="#ffffff"
     bordercolor="#666666"
     borderopacity="1"
     objecttolerance="10"
     gridtolerance="10"
     guidetolerance="10"
     inkscape:pageopacity="0"
     inkscape:pageshadow="2"
     inkscape:window-width="1916"
     inkscape:window-height="1021"
     id="namedview12"
     showgrid="false"
     inkscape:zoom="1.2614286"
     inkscape:cx="350"
     inkscape:cy="290.09768"
     inkscape:window-x="0"
     inkscape:window-y="0"
     inkscape:window-maximized="1"
     inkscape:current-layer="svg10" />
  <!-- background & external border -->
  <rect
     x="0"
     y="0"
     width="700"
     height="700"
     fill="white"
     stroke="none"
     id="rect2" />
  <!-- header -->
  <rect
     style="mix-blend-mode:normal;fill:url(#linearGradient2815);fill-opacity:1;fill-rule:nonzero"
     x="0"
     y="0"
     width="700"
     height="150"
     fill="#762F87"
     stroke="none"
     id="rect4" />
  <style
     id="style6">
	text {
		font-family: Helvetica, sans-serif;
	}
	.number {
		font-size: 300px;
	}
</style>
  <g
     class="number"
     style="font-style:normal;font-variant:normal;font-weight:normal;font-stretch:normal;font-size:300px;font-family:'Source Sans Pro';-inkscape-font-specification:'Source Sans Pro';fill:#000000"
     id="text8"
     aria-label="31">
    <path
       id="path838"
       style="font-style:normal;font-variant:normal;font-weight:normal;font-stretch:normal;font-size:300px;font-family:'Source Sans Pro';-inkscape-font-specification:'Source Sans Pro';fill:#000000"
       d="m 270.8,503.6 c 35.1,0 63.3,-20.7 63.3,-54.6 0,-26.4 -18.3,-43.2 -41.4,-48.6 v -1.2 c 20.7,-7.8 34.5,-22.5 34.5,-45.6 0,-30.9 -24,-48.6 -57.3,-48.6 -22.5,0 -40.2,10.2 -54.9,24 l 13.2,15.6 c 11.4,-11.1 24.9,-19.2 40.8,-19.2 20.4,0 33,11.7 33,30 0,20.1 -13.8,35.7 -54.3,35.7 V 410 c 45.6,0 61.2,15.3 61.2,38.1 0,21.3 -16.5,34.8 -39.6,34.8 -22.5,0 -37.5,-10.5 -48.9,-22.5 l -12.6,16.2 c 12.9,14.1 32.4,27 63,27 z" />
    <path
       id="path840"
       style="font-style:normal;font-variant:normal;font-weight:normal;font-stretch:normal;font-size:300px;font-family:'Source Sans Pro';-inkscape-font-specification:'Source Sans Pro';fill:#000000"
       d="m 372.79991,500 h 108 v -20.7 h -39.3 V 308.6 h -19.2 c -10.5,6.3 -23.1,11.1 -40.8,14.1 v 16.2 h 35.1 v 140.4 h -43.8 z" />
  </g>
  <!-- vim: set ts=2 sw=2 noet : -->
</svg>
