<?xml version="1.0" encoding="UTF-8" standalone="no"?>
<svg
   viewBox="0 0 700 700"
   stroke="black"
   stroke-width="5"
   fill="none"
   version="1.1"
   id="svg10"
   sodipodi:docname="icon.svg"
   inkscape:version="1.1.1 (3bf5ae0d25, 2021-09-20, custom)"
   xmlns:inkscape="http://www.inkscape.org/namespaces/inkscape"
   xmlns:sodipodi="http://sodipodi.sourceforge.net/DTD/sodipodi-0.dtd"
   xmlns:xlink="http://www.w3.org/1999/xlink"
   xmlns="http://www.w3.org/2000/svg"
   xmlns:svg="http://www.w3.org/2000/svg"
   xmlns:rdf="http://www.w3.org/1999/02/22-rdf-syntax-ns#"
   xmlns:cc="http://creativecommons.org/ns#"
   xmlns:dc="http://purl.org/dc/elements/1.1/">
  <metadata
     id="metadata16">
    <rdf:RDF>
      <cc:Work
         rdf:about="">
        <dc:format>image/svg+xml</dc:format>
        <dc:type
           rdf:resource="http://purl.org/dc/dcmitype/StillImage" />
      </cc:Work>
    </rdf:RDF>
  </metadata>
  <defs
     id="defs14">
    <linearGradient
       id="linearGradient2813"
       inkscape:collect="always">
      <stop
         id="stop2809"
         offset="0"
         style="stop-color:#762f87;stop-opacity:1;" />
      <stop
         id="stop2811"
         offset="1"
         style="stop-color:#161616;stop-opacity:1" />
    </linearGradient>
    <linearGradient
       id="linearGradient2795"
       inkscape:swatch="solid">
      <stop
         id="stop2793"
         offset="0"
         style="stop-color:#762f87;stop-opacity:1;" />
    </linearGradient>
    <linearGradient
       gradientUnits="userSpaceOnUse"
       y2="75"
       x2="700"
       y1="75"
       x1="0"
       id="linearGradient2815"
       xlink:href="#linearGradient2813"
       inkscape:collect="always"
       gradientTransform="matrix(0.88377866,0,0,0.88377866,39.822038,35.094331)" />
    <clipPath
       clipPathUnits="userSpaceOnUse"
       id="clipPath75">
      <rect
         style="fill:#161616;stroke-width:1.88976"
         id="rect77"
         width="700"
         height="700"
         x="0"
         y="0"
         rx="50"
         ry="50" />
    </clipPath>
  </defs>
  <sodipodi:namedview
     inkscape:document-rotation="0"
     pagecolor="#ffffff"
     bordercolor="#666666"
     borderopacity="1"
     objecttolerance="10"
     gridtolerance="10"
     guidetolerance="10"
     inkscape:pageopacity="0"
     inkscape:pageshadow="2"
     inkscape:window-width="1918"
     inkscape:window-height="1064"
     id="namedview12"
     showgrid="false"
     inkscape:zoom="0.60566812"
     inkscape:cx="106.49397"
     inkscape:cy="319.4819"
     inkscape:window-x="0"
     inkscape:window-y="14"
     inkscape:window-maximized="1"
     inkscape:current-layer="layer1"
     inkscape:pagecheckerboard="0" />
  <g
     inkscape:groupmode="layer"
     id="layer2"
     inkscape:label="Background" />
  <!-- background & external border -->
  <!-- header -->
  <style
     id="style6">
	text {
		font-family: Helvetica, sans-serif;
	}
	.number {
		font-size: 300px;
	}
</style>
  <!-- vim: set ts=2 sw=2 noet : -->
  <g
     inkscape:groupmode="layer"
     id="layer1"
     inkscape:label="Page"
     style="display:inline">
    <rect
       style="fill:#484848;fill-opacity:1;stroke:none;stroke-width:0.408156"
       id="rect5773"
       width="19.430414"
       height="19.430414"
       x="-434.27634"
       y="461.37759"
       transform="matrix(0.6645614,-0.74723366,0.6645614,0.74723366,0,0)" />
    <rect
       style="fill:#484848;fill-opacity:1;stroke:none;stroke-width:0.408156"
       id="rect5589"
       width="19.430414"
       height="19.430414"
       x="469.87411"
       y="515.57733"
       transform="matrix(0.6645614,-0.74723366,0.6645614,0.74723366,0,0)" />
    <g
       id="g5537"
       transform="matrix(1.0501522,0,0,1.0501522,-23.146982,-17.222444)">
      <g
         id="g5521">
        <rect
           x="51.487915"
           y="48.881275"
           width="618.64508"
           height="618.64508"
           fill="#ffffff"
           stroke="none"
           id="rect4778"
           style="fill:#484848;fill-opacity:1;stroke-width:4.41889" />
      </g>
      <g
         id="g4776">
        <g
           id="g4765">
          <rect
             x="39.822037"
             y="35.09433"
             width="618.64508"
             height="618.64508"
             fill="#ffffff"
             stroke="none"
             id="rect2"
             style="stroke-width:4.41889" />
          <rect
             style="mix-blend-mode:normal;fill:url(#linearGradient2815);fill-opacity:1;fill-rule:nonzero;stroke-width:4.41889"
             x="39.822037"
             y="35.09433"
             width="618.64508"
             height="132.5668"
             fill="#762F87"
             stroke="none"
             id="rect4" />
        </g>
        <g
           class="number"
           style="font-style:normal;font-variant:normal;font-weight:normal;font-stretch:normal;font-size:300px;font-family:'Source Sans Pro';-inkscape-font-specification:'Source Sans Pro';fill:#000000"
           id="text8"
           aria-label="31"
           transform="matrix(0.88377866,0,0,0.88377866,39.822038,35.094331)">
          <path
             id="path838"
             style="font-style:normal;font-variant:normal;font-weight:normal;font-stretch:normal;font-size:300px;font-family:'Source Sans Pro';-inkscape-font-specification:'Source Sans Pro';fill:#000000"
             d="m 270.8,503.6 c 35.1,0 63.3,-20.7 63.3,-54.6 0,-26.4 -18.3,-43.2 -41.4,-48.6 v -1.2 c 20.7,-7.8 34.5,-22.5 34.5,-45.6 0,-30.9 -24,-48.6 -57.3,-48.6 -22.5,0 -40.2,10.2 -54.9,24 l 13.2,15.6 c 11.4,-11.1 24.9,-19.2 40.8,-19.2 20.4,0 33,11.7 33,30 0,20.1 -13.8,35.7 -54.3,35.7 V 410 c 45.6,0 61.2,15.3 61.2,38.1 0,21.3 -16.5,34.8 -39.6,34.8 -22.5,0 -37.5,-10.5 -48.9,-22.5 l -12.6,16.2 c 12.9,14.1 32.4,27 63,27 z" />
          <path
             id="path840"
             style="font-style:normal;font-variant:normal;font-weight:normal;font-stretch:normal;font-size:300px;font-family:'Source Sans Pro';-inkscape-font-specification:'Source Sans Pro';fill:#000000"
             d="m 372.79991,500 h 108 v -20.7 h -39.3 V 308.6 h -19.2 c -10.5,6.3 -23.1,11.1 -40.8,14.1 v 16.2 h 35.1 v 140.4 h -43.8 z" />
        </g>
        <g
           id="g4749">
          <polygon
             points="0,150 150,0 0,0 "
             fill="#a9a9a9"
             stroke="none"
             id="polygon480"
             transform="matrix(0.88377866,0,0,0.88377866,525.9003,521.17259)"
             style="fill:#e6e6e6" />
          <polygon
             points="150,0 0,0 0,150 "
             fill="#a9a9a9"
             stroke="none"
             id="polygon4598"
             transform="matrix(-0.88377866,0,0,-0.88377866,658.4671,653.73939)"
             style="fill:#cccccc" />
        </g>
      </g>
    </g>
  </g>
</svg>
